<svg class="svg-icon" style="width: 1em; height: 1em;vertical-align: middle;fill: currentColor;overflow: hidden;" viewBox="0 0 1024 1024" version="1.1" xmlns="http://www.w3.org/2000/svg"><path d="M597.333333 725.333333 512 725.333333 512 640 426.666667 640 426.666667 554.666667 512 554.666667 512 640 597.333333 640M597.333333 384 512 384 512 469.333333 597.333333 469.333333 597.333333 554.666667 512 554.666667 512 469.333333 426.666667 469.333333 426.666667 384 512 384 512 298.666667 426.666667 298.666667 426.666667 213.333333 512 213.333333 512 298.666667 597.333333 298.666667M810.666667 128 213.333333 128C165.973333 128 128 165.973333 128 213.333333L128 810.666667C128 857.6 166.4 896 213.333333 896L810.666667 896C857.6 896 896 857.6 896 810.666667L896 213.333333C896 165.973333 857.6 128 810.666667 128Z"  /></svg>